# xmcd
#
# Track frame offsets: 
#        187
#        25955
#        46422
#        75460
#        94742
#        125745
#        151090
#        172390
#        198187
#        224367
#
# Disc length: 3223 seconds
#
# Revision: 3
# Processed by: cddbd v1.5.2PL0 Copyright (c) Steve Scherf et al.
# Submitted via: ExactAudioCopy v1.3
#
DISCID=840c950a
DTITLE=STEELHEART - Tangled In Reins [MVCM-188]
DYEAR=1992
DGENRE=Hard Rock
TTITLE0=Loaded Mutha
TTITLE1=Sticky Side Up
TTITLE2=Electric Love Child
TTITLE3=Late For The Party
TTITLE4=All Your Love
TTITLE5=Love'em And I'm Gone
TTITLE6=Take Me Back Home
TTITLE7=Steelheart
TTITLE8=Mama Don't You Cry
TTITLE9=Dancin' In The Fire
EXTD=YEAR: 1992
EXTT0=
EXTT1=
EXTT2=
EXTT3=
EXTT4=
EXTT5=
EXTT6=
EXTT7=
EXTT8=
EXTT9=
PLAYORDER=
